<?xml version="1.0" encoding="UTF-8"?>
<!DOCTYPE svg PUBLIC "-//W3C//DTD SVG 1.1//EN" "http://www.w3.org/Graphics/SVG/1.1/DTD/svg11.dtd">
<!-- Creator: CorelDRAW X6 -->
<svg xmlns="http://www.w3.org/2000/svg" xml:space="preserve" width="3200px" height="1100px" version="1.1" style="shape-rendering:geometricPrecision; text-rendering:geometricPrecision; image-rendering:optimizeQuality; fill-rule:evenodd; clip-rule:evenodd"
viewBox="0 0 3200 1100"
 xmlns:xlink="http://www.w3.org/1999/xlink">
 <defs>
  <style type="text/css">
   <![CDATA[
    .fil1 {fill:#FF9933}
    .fil0 {fill:#0FACF3;fill-rule:nonzero}
    .fil2 {fill:#FF9933;fill-rule:nonzero}
   ]]>
  </style>
 </defs>
 <g id="Layer_x0020_1">
  <metadata id="CorelCorpID_0Corel-Layer"/>
  <g id="_692041584">
   <g>
    <path class="fil0" d="M191 476c0,0 42,-54 106,-54 73,0 114,53 114,159 0,104 -41,158 -114,158 -62,0 -106,-42 -106,-115l0 -147zm117 -152c-51,0 -96,21 -117,43l0 -245c0,-32 -26,-58 -58,-58 -32,0 -58,26 -58,58l0 502c0,142 92,213 221,213 144,0 228,-82 228,-256 0,-174 -82,-257 -216,-257zm343 6c-32,0 -58,26 -58,58l0 248c0,104 39,200 211,200 171,0 210,-96 210,-200l0 -248c0,-32 -26,-58 -58,-58 -32,0 -58,26 -58,58l0 248c0,49 -17,96 -95,96 -79,0 -96,-47 -96,-96l0 -248c0,-32 -26,-58 -58,-58zm457 600c-31,0 -55,22 -55,53 0,31 25,53 55,53 107,0 174,-75 221,-179l198 -448c2,-5 4,-13 4,-22 0,-32 -26,-58 -58,-58 -32,0 -48,22 -53,36l-117 296 -117 -296c-5,-14 -21,-36 -53,-36 -32,0 -58,26 -58,58 0,10 2,17 4,22l164 379c-35,87 -67,142 -135,142z"/>
    <path class="fil0" d="M1713 476c0,0 42,-54 106,-54 53,0 89,28 105,84 13,-20 28,-39 43,-59 11,-14 23,-29 35,-43 -37,-54 -96,-80 -172,-80 -51,0 -96,21 -117,43l0 -245c0,-32 -26,-58 -58,-58 -32,0 -58,26 -58,58l0 502c0,142 92,213 221,213 144,0 228,-82 228,-256 0,-33 -3,-63 -9,-90 -9,13 -17,25 -25,38 -27,42 -49,82 -68,121l-2 3 -24 16c-17,47 -52,71 -101,71 -62,0 -106,-42 -106,-115l0 -147zm591 -52c44,0 73,17 96,34 12,9 21,15 36,15 28,0 51,-23 51,-51 0,-16 -4,-23 -11,-32 -30,-37 -97,-66 -173,-66 -98,0 -178,47 -178,143 0,181 261,136 261,223 0,30 -31,43 -79,43 -53,0 -88,-20 -117,-44 -12,-10 -22,-13 -33,-13 -28,0 -51,23 -51,51 0,13 4,22 13,33 27,33 97,75 189,75 110,0 195,-51 195,-151 0,-176 -262,-140 -262,-219 0,-27 23,-41 63,-41zm319 -85l-25 0c-27,0 -48,21 -48,48 0,27 21,48 48,48l25 0 0 252c0,84 59,145 154,145 28,0 50,-22 50,-50 0,-28 -22,-50 -50,-50 -19,0 -41,-14 -41,-38l0 -258 48 0c27,0 48,-21 48,-48 0,-27 -21,-48 -48,-48l-48 0 0 -90c0,-31 -26,-57 -57,-57 -31,0 -57,26 -57,57l0 90z"/>
   </g>
   <path class="fil1" d="M2249 208l0 0c-53,40 -98,119 -163,202 -65,83 -114,160 -148,231l-27 19c-23,16 -38,27 -46,35 -3,-12 -10,-31 -21,-57l-10 -24c-15,-34 -29,-60 -41,-76 -13,-17 -27,-28 -43,-33 27,-28 51,-42 73,-42 19,0 40,26 63,77l11 26c42,-70 95,-139 160,-205 65,-66 129,-117 192,-153z"/>
   <path class="fil2" d="M2885 822c14,0 22,-7 22,-22 0,-15 -8,-23 -22,-23 -14,0 -22,7 -22,23 0,15 8,22 22,22z"/>
   <path id="1" class="fil2" d="M2978 682c0,-10 -8,-18 -18,-18 -10,0 -18,8 -18,18l0 122c0,10 8,18 18,18 10,0 18,-8 18,-18l0 -122zm-18 -37c14,0 22,-8 22,-21 0,-16 -8,-22 -22,-22 -14,0 -22,7 -22,22 0,13 8,21 22,21z"/>
   <path id="2" class="fil2" d="M3091 661c-23,0 -37,10 -43,20 0,-10 -8,-18 -18,-18 -10,0 -18,8 -18,18l0 123c0,10 8,18 18,18 10,0 18,-7 18,-18l0 -75c0,-20 8,-35 34,-35 22,0 30,13 30,32l0 78c0,10 7,18 18,18 10,0 18,-7 18,-18l0 -85c0,-29 -11,-59 -57,-59z"/>
  </g>
 </g>
</svg>
