<?xml version="1.0" encoding="iso-8859-1"?>
<!-- Generator: Adobe Illustrator 19.0.0, SVG Export Plug-In . SVG Version: 6.00 Build 0)  -->
<svg version="1.1" id="Capa_1" xmlns="http://www.w3.org/2000/svg" xmlns:xlink="http://www.w3.org/1999/xlink" x="0px" y="0px"
	 viewBox="0 0 470 470" style="enable-background:new 0 0 470 470;fill:#34495E;" xml:space="preserve">
<g>
	<path d="M462.5,282.075h-1.79v-9.496c0-20.145-16.234-38.779-36.189-41.539l-41.945-5.801
		c-15.433-2.134-40.206-9.897-54.096-16.952c-0.052-0.026-0.104-0.052-0.155-0.077l-54.584-26.155l1.312-2.584
		c1.876-3.693,0.403-8.208-3.29-10.083c-3.695-1.875-8.209-0.402-10.083,3.291l-1.469,2.893l-21.389-10.249l1.717-3.381
		c1.875-3.693,0.401-8.208-3.291-10.083c-3.694-1.875-8.208-0.402-10.084,3.291l-1.874,3.689l-31.152-14.927
		c-0.015-0.007-5.175-2.48-5.175-2.48c-3.736-1.79-8.215-0.213-10.005,3.522c-0.829,1.729-0.928,3.615-0.433,5.323l-54.522,39.127
		c-15.547,11.158-42.898,12.885-59.727,3.771l-38.557-20.882c-1.838-0.997-4.009-1.18-5.989-0.505
		c-1.979,0.674-3.588,2.144-4.437,4.055c-5.55,12.497-8.364,25.82-8.364,39.598v66.662C3.054,282.396,0,285.625,0,289.575v32.232
		c0,4.142,3.357,7.5,7.5,7.5h119.587c4.053,0,7.354-3.214,7.495-7.232h87.709l44.436,7.137c0.394,0.063,0.791,0.095,1.189,0.095
		H462.5c4.143,0,7.5-3.358,7.5-7.5v-32.232C470,285.433,466.643,282.075,462.5,282.075z M445.71,272.579v9.496h-56.662v-40.798
		l33.418,4.622C435.065,247.641,445.71,259.859,445.71,272.579z M26.063,189.538l31.069,16.827
		c22.039,11.937,55.252,9.838,75.615-4.774l58.874-42.25l26.873,12.877l-10.113,19.912c-1.875,3.693-0.401,8.208,3.291,10.083
		c1.089,0.553,2.248,0.814,3.391,0.814c2.734,0,5.37-1.5,6.693-4.105l10.269-20.22l21.389,10.249l-10.113,19.912
		c-1.876,3.693-0.403,8.208,3.29,10.083c1.089,0.553,2.248,0.814,3.391,0.814c2.734,0,5.37-1.5,6.692-4.105l10.271-20.221
		l21.388,10.249l-7.868,15.494c-2.465,4.852-9.665,9.271-15.106,9.271h-46.747c-4.143,0-7.5,3.358-7.5,7.5s3.357,7.5,7.5,7.5h46.747
		c10.991,0,23.502-7.677,28.48-17.478l8.025-15.802l19.9,9.535c13.542,6.863,35.574,14.075,52.282,17.309v43.065H95.221
		c3.53-20.765,21.638-36.629,43.393-36.629h50c4.143,0,7.5-3.358,7.5-7.5s-3.357-7.5-7.5-7.5h-50
		c-30.04,0-54.894,22.563-58.546,51.629H21.929v-66.633C21.929,206.532,23.316,197.85,26.063,189.538z M455,314.307H268.515
		l-44.436-7.137c-0.394-0.063-0.791-0.095-1.189-0.095h-95.803c-4.053,0-7.354,3.214-7.495,7.232H15v-17.232h440V314.307z"/>
</g>
<g>
</g>
<g>
</g>
<g>
</g>
<g>
</g>
<g>
</g>
<g>
</g>
<g>
</g>
<g>
</g>
<g>
</g>
<g>
</g>
<g>
</g>
<g>
</g>
<g>
</g>
<g>
</g>
<g>
</g>
</svg>
